<?xml version="1.0" encoding="utf-8"?><svg viewBox="0 0 209 82" xmlns="http://www.w3.org/2000/svg" xmlns:xlink="http://www.w3.org/1999/xlink"><style>:root>svg{display:none}:root>svg:target{display:block}</style><svg fill="none" viewBox="0 0 209 82" id="footer-logo" xmlns="http://www.w3.org/2000/svg"><path d="M88.232 59.255c.21.262.315.589.315.98 0 .553-.205.984-.613 1.29-.408.307-1 .46-1.775.46h-2.64a.35.35 0 0 1-.351-.351v-5.618a.35.35 0 0 1 .35-.351h2.47c.709 0 1.261.142 1.658.424.396.283.595.684.595 1.201 0 .332-.08.617-.239.858a1.49 1.49 0 0 1-.689.55c.402.11.709.295.919.557zm-3.91-.89h1.567c.38 0 .667-.075.865-.226.199-.15.298-.373.298-.668 0-.295-.1-.52-.298-.672-.199-.154-.487-.231-.865-.231h-1.568v1.797zm3.045 1.78c0-.614-.414-.921-1.244-.921H84.32v1.86h1.802c.83 0 1.244-.313 1.244-.94zm7.168-1.83c-.404-.338-.987-.509-1.743-.509h-1.749V55.96a.292.292 0 0 0-.292-.293h-.57c-.16 0-.292.13-.292.293v5.733c0 .163.132.293.292.293h2.421c.804 0 1.43-.183 1.874-.555.444-.371.666-.904.666-1.604 0-.667-.201-1.172-.607-1.512zm-.933 2.452c-.245.21-.597.316-1.053.316h-1.506V58.7h1.505c.949 0 1.424.382 1.424 1.147 0 .404-.123.71-.37.92zm3.604-4.807v5.733a.292.292 0 0 1-.292.293h-.57a.292.292 0 0 1-.292-.293V55.96c0-.163.131-.293.292-.293h.57c.16 0 .292.13.292.293zM76.71 59.129v.57c0 .162-.13.294-.292.294H53.85a.292.292 0 0 1-.291-.293v-.572c0-.16.129-.292.291-.292h22.568c.163 0 .292.132.292.293zm114.005 0v.57a.291.291 0 0 1-.291.294h-22.568a.293.293 0 0 1-.293-.293v-.572c0-.16.131-.292.293-.292h22.568c.162 0 .291.132.291.293zm-86.661.126c.21.262.315.589.315.98 0 .553-.204.984-.613 1.29-.408.307-1 .46-1.775.46h-2.604a.388.388 0 0 1-.388-.388v-5.542c0-.215.174-.389.388-.389h2.432c.709 0 1.262.142 1.658.424.396.283.595.683.595 1.201 0 .332-.079.617-.238.857a1.488 1.488 0 0 1-.69.551c.403.109.709.294.92.556zm-3.911-.89h1.568c.379 0 .667-.075.865-.226.199-.15.298-.373.298-.668 0-.295-.099-.52-.298-.672-.198-.154-.487-.231-.865-.231h-1.568v1.797zm3.046 1.78c0-.614-.414-.921-1.244-.921h-1.802v1.86h1.802c.829 0 1.244-.313 1.244-.94zm3.694 1.512a3.093 3.093 0 0 1-1.216-1.165 3.198 3.198 0 0 1-.442-1.665 3.2 3.2 0 0 1 .442-1.666 3.094 3.094 0 0 1 1.216-1.165 3.592 3.592 0 0 1 1.739-.42c.643 0 1.222.14 1.739.42.516.28.922.666 1.216 1.16.294.494.442 1.05.442 1.67 0 .62-.147 1.178-.442 1.671-.294.493-.7.88-1.216 1.16a3.59 3.59 0 0 1-1.739.42 3.59 3.59 0 0 1-1.739-.42zm2.874-.894c.337-.19.601-.455.793-.795.192-.34.288-.72.288-1.143 0-.42-.096-.801-.288-1.142a2.054 2.054 0 0 0-.793-.795 2.27 2.27 0 0 0-1.135-.284c-.421 0-.8.095-1.136.284-.336.19-.6.455-.793.795-.192.34-.288.721-.288 1.142 0 .422.096.802.288 1.143.193.34.457.605.793.795.336.19.715.284 1.136.284.421 0 .799-.094 1.135-.284zm7.582-1.489c.214.267.32.582.32.943 0 .38-.123.71-.37.99-.246.279-.575.495-.987.645-.411.15-.86.226-1.347.226a4.73 4.73 0 0 1-1.265-.176 4.202 4.202 0 0 1-.998-.419.239.239 0 0 1-.095-.302l.184-.416a.237.237 0 0 1 .332-.113 3.522 3.522 0 0 0 1.697.442c.474 0 .87-.093 1.185-.28.315-.186.473-.442.473-.767a.704.704 0 0 0-.343-.633c-.228-.144-.543-.216-.946-.216h-1.191a.277.277 0 0 1-.277-.278v-.365c0-.154.124-.278.277-.278h1.101c.276 0 .504-.045.685-.135a.78.78 0 0 0 .383-.957.802.802 0 0 0-.351-.398c-.267-.162-.608-.243-1.022-.243-.283 0-.574.04-.875.122a3.345 3.345 0 0 0-.592.22.267.267 0 0 1-.364-.146l-.169-.434a.274.274 0 0 1 .142-.347c.255-.118.521-.21.8-.277a4.645 4.645 0 0 1 1.085-.132c.469 0 .899.073 1.293.217.393.144.707.35.941.618.234.268.352.583.352.944 0 .313-.084.587-.253.822a1.6 1.6 0 0 1-.65.522c-.016.007-.015.028.002.034.358.12.639.31.843.567zm9.924 2.428-.009-3.904-1.989 3.328a.285.285 0 0 1-.245.138h-.2a.284.284 0 0 1-.244-.137l-1.99-3.276v3.85a.285.285 0 0 1-.285.286h-.538a.285.285 0 0 1-.285-.287v-5.748c0-.158.127-.286.285-.286h.517c.1 0 .193.053.244.139l2.413 4.042 2.386-4.04a.285.285 0 0 1 .245-.141h.508c.157 0 .284.128.285.285l.017 5.749a.287.287 0 0 1-.286.287h-.546a.286.286 0 0 1-.283-.285zm7.897-6.036a.24.24 0 0 1 .211.356l-2.548 4.746c-.241.452-.528.79-.861 1.016a1.895 1.895 0 0 1-1.085.339c-.235 0-.468-.038-.7-.112a.245.245 0 0 1-.16-.305l.149-.48a.243.243 0 0 1 .289-.16c.151.036.283.055.394.055.379 0 .691-.195.937-.587l.099-.154-2.325-4.358a.241.241 0 0 1 .213-.355h.702c.09 0 .174.05.215.132l1.798 3.58 1.852-3.581a.243.243 0 0 1 .214-.131l.606-.001zm2.326 5.991a3.097 3.097 0 0 1-1.207-1.16 3.226 3.226 0 0 1-.437-1.67c0-.62.147-1.177.441-1.671a3.12 3.12 0 0 1 1.213-1.16 3.545 3.545 0 0 1 1.725-.42c.516 0 .988.09 1.414.272.311.131.586.305.827.523a.347.347 0 0 1-.002.505l-.263.247a.347.347 0 0 1-.462.009 2.184 2.184 0 0 0-1.461-.525c-.432 0-.819.094-1.162.284-.343.19-.61.453-.802.79-.192.337-.288.72-.288 1.146 0 .428.096.81.288 1.148.192.338.459.6.802.79.343.19.73.284 1.162.284a2.17 2.17 0 0 0 1.459-.53.344.344 0 0 1 .465.01l.264.251a.346.346 0 0 1 0 .503 2.915 2.915 0 0 1-.832.525 3.63 3.63 0 0 1-1.419.271 3.58 3.58 0 0 1-1.725-.422zm6.366 0a3.1 3.1 0 0 1-1.216-1.165 3.198 3.198 0 0 1-.442-1.665 3.2 3.2 0 0 1 .442-1.666 3.1 3.1 0 0 1 1.216-1.165 3.592 3.592 0 0 1 1.739-.42c.643 0 1.222.14 1.739.42.516.28.922.666 1.217 1.16a3.21 3.21 0 0 1 .441 1.67 3.2 3.2 0 0 1-.441 1.671 3.13 3.13 0 0 1-1.217 1.16 3.59 3.59 0 0 1-1.739.42 3.59 3.59 0 0 1-1.739-.42zm2.874-.894c.337-.19.601-.455.793-.795.192-.34.289-.72.289-1.143 0-.42-.097-.801-.289-1.142a2.054 2.054 0 0 0-.793-.795 2.27 2.27 0 0 0-1.135-.284c-.421 0-.8.095-1.136.284-.336.19-.6.455-.793.795-.192.34-.288.721-.288 1.142 0 .422.096.802.288 1.143.193.34.457.605.793.795.336.19.715.284 1.136.284.42 0 .799-.094 1.135-.284zm7.583-4.827c.405.181.716.44.932.777.216.337.324.737.324 1.201 0 .458-.108.857-.324 1.197-.216.34-.528.6-.932.781-.406.18-.882.272-1.429.272h-1.424v1.504a.318.318 0 0 1-.317.319h-.535a.318.318 0 0 1-.318-.319v-5.682c0-.176.142-.319.318-.319h2.276c.546 0 1.023.089 1.429.27zm-.321 2.908c.264-.217.397-.527.397-.93 0-.402-.133-.713-.397-.93-.264-.216-.652-.324-1.162-.324h-1.37v2.51h1.37c.511 0 .898-.11 1.162-.326zm6.552 1.68h-3.154l-.544 1.28a.303.303 0 0 1-.276.183h-.545a.302.302 0 0 1-.275-.425l2.567-5.72a.305.305 0 0 1 .275-.177h.765a.3.3 0 0 1 .274.177l2.576 5.719a.301.301 0 0 1-.274.425h-.563a.302.302 0 0 1-.276-.182l-.55-1.28zm-.389-.922-1.188-2.763-1.18 2.763h2.368z" fill="#A8A8A8"/><path d="m172.99 46.455-6.316-14.021a1.175 1.175 0 0 0-1.069-.693h-1.919c-.46 0-.88.273-1.069.693l-6.295 14.021a1.173 1.173 0 0 0 1.069 1.66h1.417c.474 0 .896-.281 1.082-.715l1.212-2.849h7.049l1.23 2.855c.186.43.609.71 1.078.71h1.463a1.174 1.174 0 0 0 1.068-1.66zm-10.512-5.117 2.147-5.024 2.161 5.024h-4.308z" fill="#fff"/><path d="M68.558 45.301c0 .324-.138.64-.375.862a7.595 7.595 0 0 1-2.28 1.476c-1.103.462-2.329.696-3.646.696-1.627 0-3.118-.363-4.436-1.082a8.221 8.221 0 0 1-1.78-1.297 8.06 8.06 0 0 1-1.348-1.71c-.75-1.271-1.133-2.725-1.133-4.318 0-1.593.386-3.046 1.146-4.32a8.105 8.105 0 0 1 3.139-3.005c1.316-.717 2.809-1.082 4.436-1.082 1.318 0 2.54.235 3.636.7a7.6 7.6 0 0 1 2.266 1.47c.239.226.375.54.375.866 0 .326-.132.63-.371.853l-.855.809a1.165 1.165 0 0 1-1.578.028c-.944-.84-2.036-1.249-3.342-1.249-.966 0-1.84.214-2.6.633a4.528 4.528 0 0 0-1.768 1.743c-.423.742-.64 1.601-.64 2.554 0 .953.217 1.811.64 2.556a4.542 4.542 0 0 0 1.769 1.741c.758.42 1.633.633 2.599.633 1.302 0 2.394-.412 3.337-1.26a1.172 1.172 0 0 1 1.586.03l.86.82c.235.225.364.527.363.853zm15.785-12.383V46.94c0 .647-.527 1.174-1.175 1.174h-1.43a1.176 1.176 0 0 1-1.172-1.174V35.13H73.56v11.81c0 .648-.526 1.175-1.174 1.175h-1.43a1.178 1.178 0 0 1-1.174-1.175V32.918c0-.649.529-1.177 1.175-1.177h12.212a1.178 1.178 0 0 1 1.175 1.177zM98.86 45.925v1.015c0 .647-.526 1.174-1.174 1.174H87.54a1.176 1.176 0 0 1-1.175-1.174V32.918c0-.649.527-1.177 1.175-1.177h9.84c.648 0 1.175.528 1.175 1.177v1.014c0 .65-.527 1.177-1.175 1.177h-7.194v3.036h6.25c.646 0 1.174.528 1.174 1.177v.97c0 .65-.528 1.178-1.174 1.178h-6.25v3.279h7.5c.649 0 1.175.527 1.175 1.176zm17.822-.022v4.426c0 .649-.527 1.177-1.174 1.177h-1.255a1.178 1.178 0 0 1-1.175-1.177v-2.215h-11.87a1.178 1.178 0 0 1-1.175-1.174V32.918c0-.649.529-1.177 1.175-1.177h1.429c.648 0 1.175.528 1.175 1.177v11.808h6.786V32.918c0-.649.527-1.177 1.175-1.177h1.449c.648 0 1.175.528 1.175 1.177v11.808h1.111c.647 0 1.174.528 1.174 1.177z" fill="#27AE60"/><path d="M143.5 32.918v1.035c0 .648-.527 1.176-1.175 1.176h-3.919v11.81c0 .648-.527 1.175-1.175 1.175h-1.451a1.176 1.176 0 0 1-1.173-1.174V35.13h-3.899a1.176 1.176 0 0 1-1.174-1.177V32.92c0-.649.526-1.177 1.174-1.177h11.617c.648 0 1.175.527 1.175 1.176zm-15.732 5.107h-7.552c-.645 0-1.173.529-1.173 1.175v1.455c0 .649.527 1.177 1.173 1.177h7.552a.923.923 0 0 0 .922-.924v-1.96a.923.923 0 0 0-.922-.923zm29.944-3.509a5.217 5.217 0 0 0-1.054-1.196 6.112 6.112 0 0 0-1.428-.878c-1.047-.465-2.284-.7-3.678-.7h-5.632c-.648 0-1.175.527-1.175 1.176V46.94c0 .647.527 1.174 1.175 1.174h1.472c.648 0 1.175-.527 1.175-1.174v-3.271h2.986c1.394 0 2.631-.235 3.678-.701 1.071-.478 1.909-1.179 2.484-2.086.575-.905.866-1.973.866-3.176 0-1.22-.291-2.291-.869-3.19zm-2.975 3.19c0 .837-.257 1.455-.787 1.892-.553.451-1.404.683-2.528.683h-2.854v-5.15h2.854c1.123 0 1.975.23 2.528.684.529.434.787 1.053.787 1.892zm33.958-4.788V46.94c0 .647-.528 1.174-1.175 1.174h-1.473a1.176 1.176 0 0 1-1.174-1.174v-5.428h-6.985v5.428c0 .647-.526 1.174-1.173 1.174h-1.474a1.177 1.177 0 0 1-1.175-1.174V32.918c0-.649.528-1.177 1.175-1.177h1.474c.647 0 1.173.528 1.173 1.177v5.184h6.985v-5.184c0-.649.526-1.177 1.174-1.177h1.473a1.178 1.178 0 0 1 1.175 1.177zm15.952 12.383c0 .324-.137.64-.373.862a7.625 7.625 0 0 1-2.282 1.476c-1.101.462-2.328.696-3.646.696-1.627 0-3.117-.363-4.436-1.082a8.043 8.043 0 0 1-3.128-3.007c-.75-1.271-1.132-2.725-1.132-4.318 0-1.593.385-3.046 1.145-4.32a8.135 8.135 0 0 1 3.139-3.005c1.316-.717 2.809-1.082 4.436-1.082 1.319 0 2.541.235 3.637.7a7.618 7.618 0 0 1 2.267 1.47 1.2 1.2 0 0 1 .373.866c0 .326-.131.63-.37.853l-.855.809a1.167 1.167 0 0 1-1.579.028c-.944-.84-2.037-1.249-3.341-1.249-.968 0-1.841.214-2.6.633a4.515 4.515 0 0 0-1.767 1.743c-.424.742-.64 1.601-.64 2.554 0 .953.216 1.811.64 2.556a4.536 4.536 0 0 0 1.767 1.741c.759.42 1.632.633 2.6.633 1.302 0 2.394-.412 3.338-1.26a1.174 1.174 0 0 1 1.587.03l.857.82c.236.225.365.527.363.853z" fill="#fff"/><path d="m39.63 28.844-3.032 1.246c-.742.304-.889 1.278-.285 1.804 5.965 5.195 8.171 13.28 5.464 20.757-2.971 8.2-10.927 13.144-19.77 12.316C13.492 64.16 6.342 57.16 5.371 48.68 4.35 39.538 9.428 31.224 17.755 28.464a.647.647 0 0 1 .216-.032c.29 0 .712.104 1.032.176l.248.062c.495.114 1 .28 1.537.455 1.094.372 2.209.744 3.427.724 1.63-.032 3.374-.29 5.221-.755l.093-.031c.475-.114.96-.248 1.445-.404l.537-.166a363.77 363.77 0 0 0 1.713-.528l.876-.258 9.504-2.813-.887-.786c-3.261-2.896-6.563-5.088-10.102-6.69C29.6 16.032 27 15.421 24.39 15.504c-4.014.155-7.181 2.058-9.69 5.812l-.113.166c3.767-1.024 12.3-2.39 22.227 2.253 0 0-15.076-2.843-23.217.849-.382.176-.753.372-1.115.579a6.668 6.668 0 0 0-.567.34C3.744 30.416-.93 39.753.328 49.277c1.404 10.692 9.565 18.975 20.318 20.63 1.156.176 2.3.269 3.447.269 4.54 0 8.956-1.345 12.743-3.764a24.386 24.386 0 0 0 8.926-10.176c4.276-9.156 2.215-20.128-4.97-27.176a1.09 1.09 0 0 0-1.162-.216z" fill="#27AE60"/><path d="m31.253 55.989-.092 1.624s-.011 0-.023-.011c-.483-.346-8.105-5.83-12.359-9.424-.046-.034-.091-.08-.138-.115-1.092-.933-2.184-1.901-3.138-3.007-2.3-2.627-2.84-6.129-1.483-9.112 9.507 2.73 13.07 11.958 13.3 12.58-1.93-8.87-9.22-14.481-11.92-16.29l1.126-.07c2.575-.15 6.3-.023 8.932 2.811 1.76 1.912 3.173 4.09 4.081 6.314 1.978 4.803 1.99 9.907 1.714 14.7z" fill="#27AE60"/></svg><svg fill="none" viewBox="0 0 209 82" id="logo" xmlns="http://www.w3.org/2000/svg"><path d="M88.232 59.255c.21.262.315.59.315.98 0 .554-.205.984-.613 1.29-.408.307-1 .461-1.775.461h-2.64a.35.35 0 0 1-.351-.352v-5.618a.35.35 0 0 1 .35-.35h2.47c.709 0 1.261.14 1.658.423.396.284.595.684.595 1.201 0 .332-.08.617-.239.858a1.49 1.49 0 0 1-.689.55c.402.11.709.295.919.557zm-3.91-.89h1.567c.38 0 .667-.075.865-.226.199-.15.298-.373.298-.668 0-.295-.1-.52-.298-.672-.199-.154-.487-.231-.865-.231h-1.568v1.797zm3.045 1.78c0-.614-.414-.921-1.244-.921H84.32v1.86h1.802c.83 0 1.244-.313 1.244-.939zm7.168-1.83c-.404-.338-.986-.509-1.743-.509h-1.748V55.96a.292.292 0 0 0-.292-.293h-.57a.292.292 0 0 0-.292.293v5.733c0 .163.13.293.292.293h2.42c.804 0 1.43-.183 1.874-.555.445-.371.667-.904.667-1.604 0-.667-.202-1.172-.608-1.512zm-.933 2.452c-.245.21-.597.316-1.053.316h-1.505V58.7h1.505c.948 0 1.423.382 1.423 1.147 0 .404-.123.71-.37.92zm3.604-4.807v5.733a.292.292 0 0 1-.292.293h-.57a.292.292 0 0 1-.292-.293V55.96c0-.163.131-.293.292-.293h.57c.16 0 .292.13.292.293zM76.71 59.128v.572c0 .16-.13.292-.292.292H53.85a.292.292 0 0 1-.291-.292v-.572c0-.16.129-.292.291-.292h22.568c.163 0 .292.131.292.292zm114.004 0v.572a.291.291 0 0 1-.291.292h-22.568a.293.293 0 0 1-.293-.292v-.572c0-.16.131-.292.293-.292h22.568a.29.29 0 0 1 .291.292zm-86.66.127c.21.262.315.59.315.98 0 .554-.204.984-.613 1.29-.408.307-1 .46-1.775.46h-2.604a.388.388 0 0 1-.388-.388v-5.542c0-.215.174-.389.388-.389h2.432c.709 0 1.262.142 1.658.424.396.283.595.683.595 1.201 0 .332-.079.617-.238.858-.159.24-.389.424-.69.55.403.109.709.294.92.556zm-3.911-.89h1.568c.379 0 .667-.075.865-.226.199-.15.298-.373.298-.668 0-.295-.099-.52-.298-.672-.198-.154-.487-.231-.865-.231h-1.568v1.797zm3.046 1.78c0-.614-.414-.921-1.244-.921h-1.802v1.86h1.802c.829 0 1.244-.313 1.244-.939zm3.693 1.512a3.106 3.106 0 0 1-1.216-1.165 3.207 3.207 0 0 1-.441-1.665c0-.614.147-1.17.441-1.666.294-.497.7-.886 1.216-1.165a3.594 3.594 0 0 1 1.739-.42c.643 0 1.223.14 1.739.42.517.28.922.666 1.217 1.16.294.494.442 1.05.442 1.67 0 .62-.147 1.178-.442 1.671-.295.493-.7.88-1.217 1.16a3.59 3.59 0 0 1-1.739.42c-.642 0-1.222-.14-1.739-.42zm2.875-.894a2.06 2.06 0 0 0 .793-.795c.192-.34.288-.72.288-1.143 0-.42-.096-.801-.288-1.142a2.06 2.06 0 0 0-.793-.795 2.273 2.273 0 0 0-1.136-.284c-.42 0-.799.095-1.135.284-.337.19-.601.455-.793.795-.192.34-.288.721-.288 1.142 0 .422.096.802.288 1.143.192.34.456.605.793.795.336.19.715.284 1.135.284.422 0 .799-.094 1.136-.284zm7.582-1.489c.214.267.32.582.32.943 0 .38-.123.71-.37.99-.246.279-.575.495-.987.645-.411.15-.86.226-1.347.226a4.73 4.73 0 0 1-1.265-.176 4.202 4.202 0 0 1-.998-.419.239.239 0 0 1-.095-.302l.184-.416a.237.237 0 0 1 .332-.113 3.522 3.522 0 0 0 1.697.442c.474 0 .87-.093 1.185-.28.315-.186.473-.442.473-.767a.704.704 0 0 0-.343-.633c-.228-.144-.543-.216-.946-.216h-1.191a.277.277 0 0 1-.277-.278v-.365c0-.154.124-.278.277-.278h1.101c.276 0 .504-.045.685-.135a.78.78 0 0 0 .383-.957.802.802 0 0 0-.351-.398c-.267-.162-.608-.243-1.022-.243-.283 0-.574.04-.875.122a3.345 3.345 0 0 0-.592.22.267.267 0 0 1-.364-.146l-.169-.434a.274.274 0 0 1 .142-.347c.255-.118.521-.21.8-.277a4.645 4.645 0 0 1 1.085-.132c.469 0 .899.073 1.293.217.393.144.707.35.941.618.234.268.352.583.352.944 0 .313-.084.587-.253.822a1.6 1.6 0 0 1-.65.522c-.016.007-.015.028.002.034.358.12.639.31.843.567zm9.924 2.428-.009-3.904-1.989 3.328a.285.285 0 0 1-.245.139h-.2a.284.284 0 0 1-.244-.138l-1.99-3.276v3.85a.285.285 0 0 1-.285.286h-.538a.285.285 0 0 1-.285-.286v-5.749c0-.158.127-.286.285-.286h.517c.1 0 .193.053.244.139l2.413 4.042 2.386-4.04a.285.285 0 0 1 .245-.14h.508c.157 0 .284.127.285.284l.017 5.749a.287.287 0 0 1-.286.287h-.546a.286.286 0 0 1-.283-.285zm7.897-6.036a.24.24 0 0 1 .211.356l-2.548 4.746c-.241.452-.528.79-.861 1.016a1.895 1.895 0 0 1-1.085.339c-.235 0-.468-.038-.7-.112a.245.245 0 0 1-.16-.305l.149-.48a.243.243 0 0 1 .289-.16c.151.037.283.055.394.055.379 0 .691-.195.937-.587l.099-.154-2.325-4.358a.241.241 0 0 1 .213-.355h.702c.09 0 .174.051.215.133l1.798 3.578 1.852-3.58a.243.243 0 0 1 .214-.131h.606zm2.326 5.991a3.098 3.098 0 0 1-1.207-1.16 3.226 3.226 0 0 1-.437-1.67c0-.62.147-1.177.441-1.671a3.12 3.12 0 0 1 1.213-1.16 3.544 3.544 0 0 1 1.725-.42c.516 0 .988.09 1.414.271.311.132.586.306.827.524a.347.347 0 0 1-.002.504l-.263.248a.347.347 0 0 1-.462.009 2.185 2.185 0 0 0-1.461-.525c-.432 0-.819.094-1.162.284-.343.19-.61.453-.802.79-.192.337-.288.72-.288 1.146 0 .428.096.81.288 1.148.192.338.459.6.802.79.343.19.73.284 1.162.284a2.17 2.17 0 0 0 1.459-.53.344.344 0 0 1 .465.01l.264.251a.346.346 0 0 1 0 .503 2.913 2.913 0 0 1-.832.525 3.64 3.64 0 0 1-1.419.271 3.582 3.582 0 0 1-1.725-.422zm6.366 0a3.1 3.1 0 0 1-1.216-1.165 3.199 3.199 0 0 1-.442-1.665c0-.614.147-1.17.442-1.666a3.1 3.1 0 0 1 1.216-1.165 3.59 3.59 0 0 1 1.739-.42c.643 0 1.222.14 1.739.42.516.28.922.666 1.217 1.16a3.21 3.21 0 0 1 .441 1.67 3.2 3.2 0 0 1-.441 1.671 3.13 3.13 0 0 1-1.217 1.16c-.517.28-1.096.42-1.739.42s-1.223-.14-1.739-.42zm2.874-.894c.337-.19.601-.455.793-.795.192-.34.289-.72.289-1.143 0-.42-.097-.801-.289-1.142a2.053 2.053 0 0 0-.793-.795 2.269 2.269 0 0 0-1.135-.284c-.421 0-.8.095-1.136.284-.336.19-.6.455-.793.795-.192.34-.288.721-.288 1.142 0 .422.096.802.288 1.143.193.34.457.605.793.795.336.19.715.284 1.136.284.42 0 .799-.094 1.135-.284zm7.582-4.827c.406.181.716.44.933.777.216.337.324.737.324 1.201 0 .458-.108.857-.324 1.197-.217.34-.528.6-.933.781-.405.18-.881.272-1.428.272h-1.424v1.504a.318.318 0 0 1-.318.319h-.535a.318.318 0 0 1-.318-.319v-5.682c0-.176.142-.319.318-.319h2.277c.546 0 1.023.089 1.428.27zm-.32 2.908c.264-.217.396-.527.396-.93 0-.402-.132-.713-.396-.93-.265-.216-.653-.324-1.163-.324h-1.369v2.51h1.369c.511 0 .898-.11 1.163-.326zm6.552 1.68h-3.154l-.544 1.28a.303.303 0 0 1-.276.183h-.545a.302.302 0 0 1-.275-.425l2.567-5.72a.305.305 0 0 1 .275-.177h.765a.3.3 0 0 1 .274.177l2.576 5.719a.301.301 0 0 1-.274.425h-.563a.302.302 0 0 1-.276-.182l-.55-1.28zm-.389-.922-1.188-2.763-1.18 2.763h2.368z" fill="#A8A8A8"/><path d="m172.989 46.455-6.315-14.021a1.177 1.177 0 0 0-1.07-.693h-1.918c-.461 0-.881.273-1.07.693l-6.295 14.021a1.173 1.173 0 0 0 1.069 1.66h1.418c.474 0 .896-.28 1.081-.715l1.212-2.849h7.049l1.23 2.855c.186.43.61.71 1.078.71h1.463a1.174 1.174 0 0 0 1.068-1.66zm-10.512-5.117 2.148-5.024 2.161 5.024h-4.309z" fill="#1D1D1B"/><path d="M68.558 45.301c0 .324-.138.64-.374.862a7.595 7.595 0 0 1-2.28 1.476c-1.103.462-2.33.696-3.647.696-1.627 0-3.117-.363-4.436-1.082a8.221 8.221 0 0 1-1.779-1.297 8.06 8.06 0 0 1-1.349-1.71c-.75-1.271-1.133-2.725-1.133-4.318 0-1.593.387-3.046 1.146-4.32a8.105 8.105 0 0 1 3.14-3.005c1.316-.717 2.808-1.082 4.435-1.082 1.319 0 2.54.235 3.636.7a7.6 7.6 0 0 1 2.267 1.47c.238.226.374.54.374.866 0 .326-.131.63-.37.853l-.856.809a1.165 1.165 0 0 1-1.578.028c-.944-.84-2.036-1.249-3.342-1.249-.966 0-1.84.214-2.599.633a4.528 4.528 0 0 0-1.768 1.743c-.424.742-.64 1.601-.64 2.554 0 .953.216 1.811.64 2.556a4.541 4.541 0 0 0 1.768 1.741c.759.42 1.633.633 2.6.633 1.301 0 2.393-.412 3.337-1.26a1.172 1.172 0 0 1 1.585.03l.86.82c.235.225.365.527.363.853zm15.785-12.383V46.94c0 .647-.527 1.175-1.175 1.175h-1.43a1.176 1.176 0 0 1-1.172-1.175V35.13H73.56v11.81c0 .648-.526 1.176-1.174 1.176h-1.43a1.178 1.178 0 0 1-1.174-1.175V32.918c0-.649.529-1.177 1.175-1.177h12.212a1.178 1.178 0 0 1 1.175 1.177zM98.86 45.926v1.014c0 .647-.526 1.175-1.174 1.175H87.54a1.176 1.176 0 0 1-1.175-1.175V32.918c0-.649.527-1.177 1.175-1.177h9.84c.648 0 1.175.528 1.175 1.177v1.014c0 .65-.527 1.177-1.175 1.177h-7.194v3.036h6.25c.646 0 1.174.528 1.174 1.177v.97c0 .65-.528 1.178-1.174 1.178h-6.25v3.279h7.5c.649 0 1.175.527 1.175 1.177zm17.822-.023v4.426c0 .649-.527 1.177-1.174 1.177h-1.255a1.178 1.178 0 0 1-1.175-1.177v-2.214h-11.87a1.178 1.178 0 0 1-1.175-1.175V32.918c0-.649.529-1.177 1.175-1.177h1.429c.648 0 1.175.528 1.175 1.177v11.809h6.786V32.918c0-.649.527-1.177 1.175-1.177h1.449c.648 0 1.175.528 1.175 1.177v11.809h1.111c.647 0 1.174.527 1.174 1.176z" fill="#27AE60"/><path d="M143.499 32.918v1.035c0 .649-.526 1.176-1.174 1.176h-3.92v11.81c0 .648-.526 1.176-1.174 1.176h-1.452a1.176 1.176 0 0 1-1.172-1.175V35.13h-3.899a1.177 1.177 0 0 1-1.175-1.176v-1.035c0-.649.527-1.177 1.175-1.177h11.617c.648 0 1.174.527 1.174 1.176zm-15.731 5.107h-7.552c-.645 0-1.173.529-1.173 1.175v1.455c0 .65.527 1.177 1.173 1.177h7.552a.923.923 0 0 0 .922-.923v-1.96a.923.923 0 0 0-.922-.924zm29.944-3.509a5.22 5.22 0 0 0-1.054-1.196 6.115 6.115 0 0 0-1.428-.878c-1.047-.465-2.284-.7-3.678-.7h-5.632c-.648 0-1.175.527-1.175 1.176V46.94c0 .647.527 1.175 1.175 1.175h1.472c.648 0 1.175-.528 1.175-1.175v-3.271h2.986c1.394 0 2.631-.235 3.678-.701 1.071-.478 1.909-1.179 2.484-2.086.575-.905.866-1.972.866-3.176 0-1.22-.291-2.291-.869-3.19zm-2.975 3.19c0 .838-.257 1.455-.787 1.892-.553.451-1.404.683-2.528.683h-2.854v-5.15h2.854c1.123 0 1.975.23 2.528.684.529.434.787 1.053.787 1.892zm33.958-4.788V46.94c0 .647-.528 1.175-1.175 1.175h-1.473a1.176 1.176 0 0 1-1.174-1.175v-5.428h-6.985v5.428c0 .647-.526 1.175-1.173 1.175h-1.474a1.177 1.177 0 0 1-1.175-1.175V32.918c0-.649.528-1.177 1.175-1.177h1.474c.647 0 1.173.528 1.173 1.177v5.184h6.985v-5.184c0-.649.526-1.177 1.174-1.177h1.473a1.178 1.178 0 0 1 1.175 1.177zm15.952 12.383c0 .324-.137.64-.373.862a7.625 7.625 0 0 1-2.282 1.476c-1.101.462-2.328.696-3.646.696-1.627 0-3.117-.363-4.436-1.082a8.043 8.043 0 0 1-3.128-3.007c-.75-1.271-1.132-2.725-1.132-4.318 0-1.593.385-3.046 1.145-4.32a8.135 8.135 0 0 1 3.139-3.005c1.316-.717 2.809-1.082 4.436-1.082 1.319 0 2.541.235 3.637.7a7.618 7.618 0 0 1 2.267 1.47 1.2 1.2 0 0 1 .373.866c0 .326-.131.63-.37.853l-.855.809a1.167 1.167 0 0 1-1.579.028c-.944-.84-2.037-1.249-3.341-1.249-.968 0-1.841.214-2.6.633a4.515 4.515 0 0 0-1.767 1.743c-.424.742-.64 1.601-.64 2.554 0 .953.216 1.811.64 2.556a4.536 4.536 0 0 0 1.767 1.741c.759.42 1.632.633 2.6.633 1.302 0 2.394-.412 3.338-1.26a1.174 1.174 0 0 1 1.587.03l.857.82c.236.225.365.527.363.853z" fill="#1D1D1B"/><path d="m39.63 28.844-3.032 1.245c-.742.305-.89 1.278-.285 1.805 5.965 5.195 8.171 13.28 5.464 20.757-2.972 8.2-10.927 13.143-19.77 12.316-8.514-.807-15.665-7.807-16.635-16.288-1.022-9.14 4.056-17.455 12.383-20.216a.647.647 0 0 1 .216-.031c.29 0 .711.104 1.032.176l.248.062c.495.114 1 .28 1.537.454 1.094.373 2.209.745 3.427.725 1.63-.032 3.374-.29 5.22-.755l.094-.032c.475-.114.96-.248 1.444-.403l.537-.166c.578-.176 1.146-.352 1.713-.528l.877-.258 9.504-2.813-.887-.786c-3.261-2.896-6.564-5.089-10.102-6.69C29.6 16.031 27 15.421 24.39 15.503c-4.014.155-7.181 2.058-9.69 5.812l-.113.166c3.767-1.025 12.3-2.39 22.227 2.253 0 0-15.076-2.843-23.217.848-.382.177-.753.373-1.115.58a6.6 6.6 0 0 0-.567.34C3.744 30.415-.93 39.753.328 49.277c1.404 10.692 9.565 18.975 20.318 20.63 1.156.176 2.3.268 3.447.268 4.54 0 8.956-1.344 12.743-3.764a24.386 24.386 0 0 0 8.926-10.175c4.276-9.157 2.215-20.129-4.97-27.176a1.09 1.09 0 0 0-1.162-.216z" fill="#27AE60"/><path d="m31.253 55.988-.093 1.624s-.01 0-.023-.01c-.482-.346-8.104-5.83-12.358-9.424-.047-.035-.092-.081-.138-.115-1.092-.934-2.184-1.901-3.139-3.007-2.299-2.627-2.84-6.129-1.483-9.113 9.507 2.731 13.07 11.959 13.301 12.58-1.931-8.87-9.22-14.48-11.921-16.29l1.126-.07c2.575-.15 6.3-.022 8.932 2.812 1.76 1.912 3.173 4.09 4.081 6.313 1.979 4.804 1.99 9.908 1.715 14.7z" fill="#27AE60"/></svg><svg fill="none" viewBox="0 0 24 24" id="star" xmlns="http://www.w3.org/2000/svg"><g clip-path="url(#ca)"><path d="m12 18.26-5.161 2.89a1 1 0 0 1-1.47-1.068l1.153-5.802-4.343-4.016a1 1 0 0 1 .561-1.727l5.874-.697 2.478-5.372a1 1 0 0 1 1.816 0l2.478 5.372 5.874.697a1 1 0 0 1 .561 1.727l-4.343 4.016 1.153 5.802a1 1 0 0 1-1.47 1.067L12 18.26z" fill="#27AE60"/></g><defs><clipPath id="ca"><path fill="#fff" d="M0 0h24v24H0z"/></clipPath></defs></svg></svg>